grf
version=1
nRows=11
nColumns=37
inDegrees=no
endheader
time	ground_force_1_vx	ground_force_1_vy	ground_force_1_vz	ground_force_1_px	ground_force_1_py	ground_force_1_pz	ground_moment_1_mx	ground_moment_1_my	ground_moment_1_mz	ground_force_2_vx	ground_force_2_vy	ground_force_2_vz	ground_force_2_px	ground_force_2_py	ground_force_2_pz	ground_moment_2_mx	ground_moment_2_my	ground_moment_2_mz	ground_force_3_vx	ground_force_3_vy	ground_force_3_vz	ground_force_3_px	ground_force_3_py	ground_force_3_pz	ground_moment_3_mx	ground_moment_3_my	ground_moment_3_mz	ground_force_4_vx	ground_force_4_vy	ground_force_4_vz	ground_force_4_px	ground_force_4_py	ground_force_4_pz	ground_moment_4_mx	ground_moment_4_my	ground_moment_4_mz
      0.00000000	      0.00000000	     -0.00000000	      0.00000000	      0.00000000	      0.00000000	      0.00000000	      0.00000000	      0.00000000	      0.00000000	      1.99279618	     -0.89156067	   -762.39813232	   -278.67623292	  -1091.16151588	      0.00000000	      0.00000000	      0.00000000	    369.93970983	      0.00000000	     -0.00000000	      0.00000000	      0.00000000	      0.00000000	      0.00000000	      0.00000000	      0.00000000	      0.00000000	    -34.73980190	     16.22445792	     76.62428284	    600.74080356	   -562.87643916	      0.00000000	      0.00000000	      0.00000000	    -57.19111041
      0.01000000	      0.00000000	     -0.00000000	      0.00000000	      0.00000000	      0.00000000	      0.00000000	      0.00000000	      0.00000000	      0.00000000	      2.20047116	     -1.99063373	   -766.28283691	   -278.32853882	  -1091.50545155	      0.00000000	      0.00000000	      0.00000000	    641.21486758	      0.00000000	     -0.00000000	      0.00000000	      0.00000000	      0.00000000	      0.00000000	      0.00000000	      0.00000000	      0.00000000	    -34.79891062	     16.37469405	     75.10375977	    606.47026060	   -564.64393371	      0.00000000	      0.00000000	     -0.00000000	   -176.13819709
      0.02000000	      0.00000000	     -0.00000000	      0.00000000	      0.00000000	      0.00000000	      0.00000000	      0.00000000	      0.00000000	      0.00000000	      1.57615185	     -1.27755570	   -766.51800537	   -278.17790172	  -1090.32816340	      0.00000000	      0.00000000	      0.00000000	    388.58876825	      0.00000000	     -0.00000000	      0.00000000	      0.00000000	      0.00000000	      0.00000000	      0.00000000	      0.00000000	      0.00000000	    -34.65072491	     16.07409589	     75.92311859	    603.91315813	   -565.85130045	      0.00000000	      0.00000000	     -0.00000000	    -59.33970062
      0.03000000	      0.00000000	     -0.00000000	      0.00000000	      0.00000000	      0.00000000	      0.00000000	      0.00000000	      0.00000000	      0.00000000	      1.36798978	     -1.15840960	   -770.05035400	   -277.39837332	  -1091.04693059	      0.00000000	     -0.00000000	      0.00000000	    409.74762060	      0.00000000	     -0.00000000	      0.00000000	      0.00000000	      0.00000000	      0.00000000	      0.00000000	      0.00000000	      0.00000000	    -34.82935953	     16.34429092	     75.91881561	    602.50979190	   -564.87820171	      0.00000000	      0.00000000	     -0.00000000	    -61.66937963
      0.04000000	      0.00000000	     -0.00000000	      0.00000000	      0.00000000	      0.00000000	      0.00000000	      0.00000000	      0.00000000	      0.00000000	      0.50398332	     -0.59497344	   -771.69812012	   -277.30720871	  -1091.35491369	      0.00000000	      0.00000000	      0.00000000	    260.71304529	      0.00000000	     -0.00000000	      0.00000000	      0.00000000	      0.00000000	      0.00000000	      0.00000000	      0.00000000	      0.00000000	    -34.56256724	     16.31398503	     76.39257812	    601.76531089	   -565.60989990	      0.00000000	      0.00000000	     -0.00000000	    -64.67510849
      0.05000000	      0.00000000	     -0.00000000	      0.00000000	      0.00000000	      0.00000000	      0.00000000	      0.00000000	      0.00000000	      0.00000000	     -0.20708483	     -0.56535017	   -773.58007812	   -276.12127310	  -1091.54805049	      0.00000000	     -0.00000000	      0.00000000	    231.93390656	      0.00000000	     -0.00000000	      0.00000000	      0.00000000	      0.00000000	      0.00000000	      0.00000000	      0.00000000	      0.00000000	    -34.79745342	     16.22389335	     73.11626434	    617.55971112	   -568.52373501	      0.00000000	      0.00000000	     -0.00000000	   -175.80261513
      0.06000000	      0.00000000	     -0.00000000	      0.00000000	      0.00000000	      0.00000000	      0.00000000	      0.00000000	      0.00000000	      0.00000000	     -0.95044935	     -0.83301216	   -776.04846191	   -275.56616026	  -1091.98679820	      0.00000000	     -0.00000000	      0.00000000	    260.72828489	      0.00000000	     -0.00000000	      0.00000000	      0.00000000	      0.00000000	      0.00000000	      0.00000000	      0.00000000	      0.00000000	    -35.06656888	     16.04497262	     75.22675323	    606.96495287	   -564.81670745	      0.00000000	      0.00000000	     -0.00000000	    -88.15549662
      0.07000000	      0.00000000	     -0.00000000	      0.00000000	      0.00000000	      0.00000000	      0.00000000	      0.00000000	      0.00000000	      0.00000000	     -2.10996485	     -0.89130402	   -776.99182129	   -274.69969649	  -1091.64137391	      0.00000000	      0.00000000	      0.00000000	    176.58965571	      0.00000000	     -0.00000000	      0.00000000	      0.00000000	      0.00000000	      0.00000000	      0.00000000	      0.00000000	      0.00000000	    -34.71251537	     16.13367575	     76.39918518	    601.56496274	   -563.70968362	      0.00000000	      0.00000000	      0.00000000	     30.93640860
      0.08000000	      0.00000000	     -0.00000000	      0.00000000	      0.00000000	      0.00000000	      0.00000000	      0.00000000	      0.00000000	      0.00000000	     -2.58710480	     -1.51521683	   -778.64239502	   -274.12873860	  -1091.74634015	      0.00000000	     -0.00000000	      0.00000000	    186.26732557	      0.00000000	     -0.00000000	      0.00000000	      0.00000000	      0.00000000	      0.00000000	      0.00000000	      0.00000000	      0.00000000	    -34.82813500	     16.49340171	     75.69876099	    606.19041746	   -565.60191740	      0.00000000	      0.00000000	     -0.00000000	   -170.99015087
      0.09000000	      0.00000000	     -0.00000000	      0.00000000	      0.00000000	      0.00000000	      0.00000000	      0.00000000	      0.00000000	      0.00000000	     -3.38999939	     -1.63312852	   -779.23455811	   -273.20373943	  -1091.80706297	      0.00000000	      0.00000000	      0.00000000	    246.56927469	      0.00000000	     -0.00000000	      0.00000000	      0.00000000	      0.00000000	      0.00000000	      0.00000000	      0.00000000	      0.00000000	    -34.67949915	     16.30994337	     74.98455811	    608.67824390	   -566.25073246	      0.00000000	      0.00000000	     -0.00000000	   -170.07075871
      0.10000000	      0.00000000	     -0.00000000	      0.00000000	      0.00000000	      0.00000000	      0.00000000	      0.00000000	      0.00000000	      0.00000000	     -4.96396494	     -1.42765009	   -778.52215576	   -272.23984150	  -1092.24610439	      0.00000000	      0.00000000	      0.00000000	     40.37659068	      0.00000000	     -0.00000000	      0.00000000	      0.00000000	      0.00000000	      0.00000000	      0.00000000	      0.00000000	      0.00000000	    -34.74032832	     16.25577086	     76.85118866	    600.86978368	   -561.39337042	      0.00000000	      0.00000000	     -0.00000000	   -169.09539903
